<svg width="62" height="62" viewBox="0 0 62 62" fill="none" xmlns="http://www.w3.org/2000/svg">
<path d="M30.9998 56.8333C45.2672 56.8333 56.8332 45.2673 56.8332 31C56.8332 16.7326 45.2672 5.16663 30.9998 5.16663C16.7325 5.16663 5.1665 16.7326 5.1665 31C5.1665 45.2673 16.7325 56.8333 30.9998 56.8333Z" stroke="#6A001E" stroke-width="3"/>
<path d="M41.3335 25.8334L44.502 28.5645C45.8342 29.7125 46.5002 30.2868 46.5002 31C46.5002 31.7133 45.8342 32.2876 44.502 33.4356L41.3335 36.1667" stroke="#141E46" stroke-width="3" stroke-linecap="round" stroke-linejoin="round"/>
<path d="M20.6667 25.8334L17.4981 28.5645C16.166 29.7125 15.5 30.2868 15.5 31C15.5 31.7133 16.166 32.2876 17.4981 33.4356L20.6667 36.1667" stroke="#141E46" stroke-width="3" stroke-linecap="round" stroke-linejoin="round"/>
<path d="M33.5832 23.25L28.4165 38.75" stroke="#141E46" stroke-width="3" stroke-linecap="round" stroke-linejoin="round"/>
</svg>
